<svg xmlns="http://www.w3.org/2000/svg" viewBox="0 0 34.1 37.45"><defs><style>.cls-1{fill:#231f20;}</style></defs><title>Asset 3</title><g id="Layer_2" data-name="Layer 2"><g id="Layer_1-2" data-name="Layer 1"><path class="cls-1" d="M0,26.68c0-8,6.62-12.08,23.5-13.1-.38-3.2-2.78-5.15-7.58-5.15C12.48,8.43,9.05,9.76,5,11.77L1.25,4.83A34,34,0,0,1,18,0C28,0,34.1,5.22,34.1,16.17V36.59H25.44l-.77-4h-.26c-3.61,2.71-8.08,4.89-12.66,4.89C4.52,37.45,0,32.69,0,26.68Zm23.5-.85V20c-10.51.53-13.34,2.81-13.34,5.85,0,2.3,1.94,3.42,4.94,3.42C18.28,29.25,21,27.79,23.5,25.83Z"/></g></g></svg>