<svg xmlns="http://www.w3.org/2000/svg" viewBox="0 0 34.63 51.3"><defs><style>.cls-1{fill:#231f20;}</style></defs><title>Asset 4</title><g id="Layer_2" data-name="Layer 2"><g id="Layer_1-2" data-name="Layer 1"><path class="cls-1" d="M0,32.6C0,20.91,7.51,13.85,15.27,13.85a11.81,11.81,0,0,1,9,3.84h.24L24,12.17V0h10.6V50.44H26l-.76-3.68H25c-2.62,2.59-6.33,4.54-9.89,4.54C5.94,51.3,0,44.26,0,32.6Zm24,6.71V24.9a8.41,8.41,0,0,0-6-2.37c-3.86,0-7.2,3.14-7.2,9.94,0,7,2.59,10.15,6.92,10.15A7.37,7.37,0,0,0,24,39.31Z"/></g></g></svg>