<svg xmlns="http://www.w3.org/2000/svg" viewBox="0 0 42.65 46.94"><defs><style>.cls-1{fill:#231f20;}</style></defs><title>Asset 7</title><g id="Layer_2" data-name="Layer 2"><g id="Layer_1-2" data-name="Layer 1"><path class="cls-1" d="M0,0H11l1.38,25c.12,4,.2,7.56.26,11.78h.27c.65-4.22,1.52-7.82,2.3-11.76l3.15-13.1h6.8l3,13.1c.75,3.84,1.6,7.44,2.31,11.76h.28c.08-4.32.12-7.87.24-11.76L32.32,0H42.65L36.83,46.94H25.49L22.7,32.4a74.75,74.75,0,0,1-1.26-9h-.21c-.3,2.83-.68,6-1.24,9L17.3,46.94H6.21Z"/></g></g></svg>